<?xml version="1.0" encoding="UTF-8"?>
<svg version="1.1" xmlns="http://www.w3.org/2000/svg" width="1020" height="1024">
<path d="M0 0 C1.57781166 -0.00901085 3.15561682 -0.0192265 4.7334137 -0.03053284 C8.96786092 -0.05671711 13.20212559 -0.06405326 17.43664598 -0.0659802 C20.10157498 -0.06813299 22.76645958 -0.07457587 25.43137741 -0.08247185 C34.78452168 -0.11013382 44.13753884 -0.1224905 53.49072266 -0.12011719 C62.11634295 -0.1183232 70.74139538 -0.14983847 79.36687243 -0.19734818 C86.84452164 -0.23702074 94.32198891 -0.25265025 101.7997421 -0.25075096 C106.23342472 -0.24999814 110.66660299 -0.25785553 115.10017776 -0.29028511 C144.7765623 -0.49225023 171.38936209 3.84086912 200.05273438 11.78930664 C202.13573302 12.35923642 204.22209297 12.89965314 206.31787109 13.42016602 C222.68201118 17.5428444 238.76741378 23.14333025 254.41552734 29.43579102 C255.95680829 30.03704115 257.49851136 30.63720977 259.04052734 31.23657227 C270.05534477 35.54375744 280.79448732 40.23619903 291.41552734 45.43579102 C292.08535645 45.76047363 292.75518555 46.08515625 293.4453125 46.41967773 C302.90698862 51.01221393 312.1302239 55.9490296 321.24707031 61.19116211 C323.59182869 62.53698267 325.94305513 63.87110536 328.29443359 65.20532227 C343.30770979 73.7638273 343.30770979 73.7638273 350.31005859 78.90063477 C352.95740263 80.83088746 355.68740244 82.62142361 358.41552734 84.43579102 C367.18087161 90.39153863 375.73374437 96.46824069 383.73535156 103.42578125 C387.41872159 106.62407232 391.20812064 109.62463058 395.10302734 112.56079102 C400.14197627 116.36441402 404.86923022 120.41804459 409.48974609 124.72094727 C411.30945304 126.49143041 411.30945304 126.49143041 413.41552734 127.43579102 C413.41552734 128.09579102 413.41552734 128.75579102 413.41552734 129.43579102 C414.07552734 129.43579102 414.73552734 129.43579102 415.41552734 129.43579102 C415.41552734 130.09579102 415.41552734 130.75579102 415.41552734 131.43579102 C416.07552734 131.43579102 416.73552734 131.43579102 417.41552734 131.43579102 C417.41552734 132.09579102 417.41552734 132.75579102 417.41552734 133.43579102 C418.07552734 133.43579102 418.73552734 133.43579102 419.41552734 133.43579102 C419.41552734 134.09579102 419.41552734 134.75579102 419.41552734 135.43579102 C420.07552734 135.43579102 420.73552734 135.43579102 421.41552734 135.43579102 C421.41552734 136.09579102 421.41552734 136.75579102 421.41552734 137.43579102 C422.07552734 137.43579102 422.73552734 137.43579102 423.41552734 137.43579102 C423.41552734 138.09579102 423.41552734 138.75579102 423.41552734 139.43579102 C424.07552734 139.43579102 424.73552734 139.43579102 425.41552734 139.43579102 C425.41552734 140.09579102 425.41552734 140.75579102 425.41552734 141.43579102 C426.07552734 141.43579102 426.73552734 141.43579102 427.41552734 141.43579102 C427.41552734 142.09579102 427.41552734 142.75579102 427.41552734 143.43579102 C428.40552734 143.76579102 429.39552734 144.09579102 430.41552734 144.43579102 C430.41552734 145.09579102 430.41552734 145.75579102 430.41552734 146.43579102 C431.07552734 146.43579102 431.73552734 146.43579102 432.41552734 146.43579102 C432.41552734 147.09579102 432.41552734 147.75579102 432.41552734 148.43579102 C433.07552734 148.43579102 433.73552734 148.43579102 434.41552734 148.43579102 C434.41552734 149.09579102 434.41552734 149.75579102 434.41552734 150.43579102 C435.07552734 150.43579102 435.73552734 150.43579102 436.41552734 150.43579102 C436.41552734 151.09579102 436.41552734 151.75579102 436.41552734 152.43579102 C437.07552734 152.43579102 437.73552734 152.43579102 438.41552734 152.43579102 C438.41552734 153.09579102 438.41552734 153.75579102 438.41552734 154.43579102 C439.00978516 154.69360352 439.60404297 154.95141602 440.21630859 155.21704102 C442.60855238 156.54276048 443.86334374 157.83957966 445.60302734 159.93579102 C448.24546524 163.06736103 450.94832312 166.1127633 453.72802734 169.12329102 C457.62254696 173.43437216 461.18221714 177.92190089 464.68432617 182.55004883 C467.34632898 186.06506626 470.08797969 189.48819875 472.91552734 192.87329102 C477.26388556 198.13749813 481.2070296 203.63771514 485.13427734 209.21704102 C486.91354517 211.7275148 488.72568474 214.18673998 490.60302734 216.62329102 C505.89694785 236.87278353 518.47245845 260.59783714 529.41552734 283.43579102 C529.75567871 284.13687988 530.09583008 284.83796875 530.44628906 285.56030273 C534.88324478 294.71037325 538.88568075 303.89118778 542.41552734 313.43579102 C544.58132934 319.01534784 546.8472369 324.51973802 549.38818359 329.93969727 C556.81803542 347.99169468 561.71317546 367.51390438 566.41552734 386.43579102 C566.66044922 387.40371582 566.90537109 388.37164062 567.15771484 389.36889648 C567.96218335 392.55540817 568.75309865 395.74502892 569.54052734 398.93579102 C569.7823877 399.89557861 570.02424805 400.85536621 570.2734375 401.84423828 C571.04683952 405.03087724 571.73563228 408.22783298 572.41552734 411.43579102 C572.80193642 413.18698494 572.80193642 413.18698494 573.19615173 414.97355652 C576.40429667 431.1136067 575.87425607 447.56836857 575.85143542 463.94643617 C575.84830703 467.42230503 575.85447604 470.89813465 575.86047417 474.37399787 C575.87443779 482.58937279 575.87302722 490.80464356 575.86157227 499.02001953 C575.85010357 507.42988994 575.86416453 515.83944095 575.89096874 524.24926931 C575.91328737 531.53063788 575.91972699 538.8119074 575.91389233 546.09330767 C575.9105593 550.41532378 575.91268888 554.73713551 575.93014336 559.05912209 C575.99667654 577.24464597 575.65429653 594.63619466 571.41552734 612.43579102 C571.11728706 613.81256553 570.82308859 615.19022415 570.53366089 616.56887817 C569.84926802 619.80678154 569.11179475 623.02710865 568.35302734 626.24829102 C568.11003906 627.31370117 567.86705078 628.37911133 567.61669922 629.47680664 C566.3777194 634.80409123 564.96236861 639.959932 563.16040039 645.12182617 C562.31578462 647.74564402 561.67144784 650.38340288 561.03271484 653.06469727 C559.43060268 659.64085729 557.35534917 666.03623599 555.19140625 672.44433594 C554.54296621 674.36606316 553.90256474 676.29033017 553.26318359 678.21508789 C550.53603946 686.37884883 547.58109969 694.43211123 544.41552734 702.43579102 C544.04476074 703.37656494 543.67399414 704.31733887 543.29199219 705.28662109 C538.79567292 716.61221738 534.03817139 727.62106576 528.41552734 738.43579102 C527.79242233 739.69196542 527.17275621 740.94985023 526.55615234 742.20922852 C519.27228308 757.0694993 511.21135697 771.41953579 502.41552734 785.43579102 C501.64825798 786.69911671 500.8827095 787.96348875 500.11865234 789.22875977 C494.12039985 799.09806191 487.47636653 808.30361195 480.41552734 817.43579102 C479.57255824 818.53434962 478.73008311 819.63328751 477.88818359 820.73266602 C476.27517716 822.83454149 474.6566344 824.93217936 473.03271484 827.02563477 C471.10893611 829.51501332 469.22859794 832.03304136 467.36083984 834.56469727 C461.24260375 842.80445279 454.92411373 850.33057589 447.48583984 857.40844727 C445.28146532 859.52558948 443.26421264 861.72963336 441.27880859 864.05297852 C436.79397802 869.24928538 431.93319067 874.06794254 427.07299805 878.90869141 C425.48093768 880.49539048 423.89429744 882.08736843 422.30810547 883.67993164 C417.37466761 888.61654656 412.40328998 893.46036809 407.09448242 897.99755859 C404.74182491 900.01290037 402.49257828 902.13495016 400.22802734 904.24829102 C395.19928889 908.83823373 389.94368822 912.98762882 384.51318359 917.08032227 C381.88278401 919.08048739 379.33300809 921.13913742 376.79052734 923.24829102 C369.81630272 928.85016822 362.3532087 933.77409159 354.92578125 938.74780273 C352.56105557 940.33793241 350.21236244 941.94946786 347.86474609 943.56469727 C321.5650097 961.40994581 291.02126088 977.63203521 261.29052734 988.81079102 C256.5896024 990.58996052 251.93658645 992.45579033 247.29052734 994.37329102 C227.05371163 1002.57214645 205.51525353 1007.95182955 184.41552734 1013.43579102 C183.37138672 1013.71293945 182.32724609 1013.99008789 181.25146484 1014.27563477 C175.40462975 1015.79399892 169.59104581 1016.98137801 163.62255859 1017.90844727 C160.17787926 1018.47486835 156.77357063 1019.17617924 153.35302734 1019.87329102 C126.43249924 1024.87936369 99.72237015 1024.90767931 72.42822266 1024.8269043 C66.5890834 1024.80981354 60.75035435 1024.81996152 54.91122913 1024.83723068 C25.55450733 1024.9109262 -2.60626219 1024.18877747 -31.38671875 1017.90014648 C-34.77246451 1017.18478452 -38.17662216 1016.5996764 -41.58447266 1015.99829102 C-63.83427649 1011.83341282 -85.36402195 1004.86690454 -106.83447266 997.81079102 C-107.94056885 997.45082031 -109.04666504 997.09084961 -110.1862793 996.7199707 C-116.29958056 994.68636704 -122.13854585 992.37574281 -127.9699707 989.63867188 C-130.44273967 988.50099957 -132.9297427 987.47217764 -135.46337891 986.47875977 C-141.561527 984.08025936 -147.53462982 981.40894072 -153.52197266 978.74829102 C-155.73887613 977.76399096 -157.95629964 976.78086107 -160.17431641 975.79907227 C-161.62632446 975.1538562 -161.62632446 975.1538562 -163.10766602 974.49560547 C-176.26111001 968.86730577 -191.1167884 973.32098613 -204.14697266 977.18579102 C-205.71603199 977.63581239 -207.28569495 978.08373453 -208.85595703 978.52954102 C-211.18081673 979.18988486 -213.50511733 979.85167034 -215.82705688 980.5222168 C-222.21765142 982.36231616 -228.65004658 983.98808613 -235.10766602 985.57348633 C-239.29214587 986.6113055 -243.43993271 987.75041225 -247.58447266 988.93579102 C-253.97241267 990.73803332 -260.38050352 992.40663191 -266.82666016 993.98657227 C-271.10885304 995.04432509 -275.34914606 996.20448 -279.58447266 997.43579102 C-287.20140186 999.6452163 -294.88398991 1001.54635218 -302.58447266 1003.43579102 C-313.03471887 1006.00312273 -323.4490528 1008.6397411 -333.8059082 1011.56274414 C-340.05651927 1013.31567296 -346.33662471 1014.92994502 -352.64961243 1016.4432373 C-356.99492357 1017.49443969 -361.27883321 1018.62496829 -365.53955078 1019.98095703 C-380.55721803 1024.60780686 -394.7719746 1025.24670552 -410.41723633 1024.99829102 C-413.79017633 1024.94532048 -417.16078156 1024.91972573 -420.53395557 1024.91092682 C-423.78659172 1024.90067033 -427.03899412 1024.87165245 -430.29150391 1024.84204102 C-431.49958206 1024.83354126 -432.70766022 1024.8250415 -433.9523468 1024.81628418 C-435.61260139 1024.78746155 -435.61260139 1024.78746155 -437.30639648 1024.75805664 C-438.28071121 1024.74440063 -439.25502594 1024.73074463 -440.25886536 1024.7166748 C-442.58447266 1024.43579102 -442.58447266 1024.43579102 -444.58447266 1022.43579102 C-444.85862732 1020.31105042 -444.85862732 1020.31105042 -444.89086914 1017.64501953 C-444.90685654 1016.64539688 -444.92284393 1015.64577423 -444.9393158 1014.61585999 C-444.9446785 1013.52647629 -444.9500412 1012.43709259 -444.95556641 1011.31469727 C-444.96459488 1010.18619858 -444.97362335 1009.05769989 -444.98292542 1007.89500427 C-444.99747248 1005.49155335 -445.00632564 1003.08806243 -445.01000977 1000.68457031 C-445.02173468 997.07162166 -445.07072859 993.46047924 -445.12158203 989.84790039 C-445.2145724 976.67111435 -444.32349946 964.93287496 -440.21530151 952.38381958 C-439.30626936 949.57668642 -438.54555686 946.73301996 -437.77587891 943.88500977 C-437.23424323 941.96406047 -436.69128321 940.04348408 -436.14697266 938.12329102 C-432.21177099 924.15089595 -428.35592098 910.15757428 -424.64697266 896.12329102 C-422.60703285 888.43754268 -420.44918637 880.78570186 -418.29833984 873.13037109 C-414.65593243 860.1530773 -411.09089302 847.15473544 -407.64697266 834.12329102 C-405.89505723 827.52271341 -404.05645368 820.94784743 -402.20947266 814.37329102 C-399.15528087 803.49862911 -396.1329642 792.61651553 -393.20263672 781.70776367 C-392.66757209 779.74121096 -392.10865911 777.78117623 -391.54541016 775.82250977 C-387.78779773 762.28456965 -389.74885541 753.79309983 -396.35205078 741.74145508 C-398.60878856 737.51945992 -400.65478853 733.19629972 -402.70947266 728.87329102 C-403.13486328 727.9802124 -403.56025391 727.08713379 -403.99853516 726.16699219 C-408.71838645 716.16754015 -412.75508355 705.95833842 -416.46337891 695.54125977 C-417.34584521 693.09679736 -418.25143327 690.66580757 -419.17431641 688.23657227 C-424.00615348 675.45328791 -428.36221122 662.51459914 -431.63916016 649.23657227 C-432.47101503 645.8919657 -433.40537177 642.61050121 -434.39697266 639.31079102 C-436.17456518 633.12238121 -437.70773567 626.8987354 -439.14697266 620.62329102 C-439.44341675 619.34591064 -439.44341675 619.34591064 -439.74584961 618.04272461 C-442.94227577 603.8741409 -445.03736385 590.42536013 -444.98852539 575.89208984 C-444.99424912 574.31938194 -445.00122097 572.74667817 -445.00932312 571.17398071 C-445.02705352 566.95664114 -445.0261241 562.7395119 -445.02038074 558.52214646 C-445.01725793 554.97430367 -445.02341557 551.42649952 -445.02941948 547.87866229 C-445.04339853 539.49264225 -445.04196034 531.10672422 -445.03051758 522.72070312 C-445.01905629 514.13251315 -445.03309377 505.54463621 -445.05991405 496.95648748 C-445.08222975 489.52654094 -445.08867268 482.09669149 -445.08283764 474.66671389 C-445.07950285 470.25412565 -445.08164609 465.84173759 -445.09908867 461.42917824 C-445.16490657 443.05279692 -444.9175086 425.41523106 -440.58447266 407.43579102 C-440.09736376 405.17828699 -439.61131111 402.92055404 -439.12744141 400.66235352 C-438.68379723 398.79320586 -438.23210599 396.92594796 -437.77197266 395.06079102 C-437.39359253 393.51174072 -437.39359253 393.51174072 -437.00756836 391.93139648 C-424.17486453 340.24727946 -404.6685474 291.24465818 -377.58447266 245.43579102 C-377.18341309 244.75500488 -376.78235352 244.07421875 -376.36914062 243.37280273 C-362.37763735 219.6582909 -362.37763735 219.6582909 -354.52978516 209.91235352 C-351.95386942 206.63297484 -349.5293067 203.250903 -347.08447266 199.87329102 C-343.7153196 195.24028089 -340.29132563 190.79354251 -336.42822266 186.55688477 C-334.50353221 184.3426752 -332.7225293 182.03881548 -330.94140625 179.70849609 C-325.50271653 172.60336366 -319.64402795 166.04504134 -313.44775391 159.59008789 C-312.5215625 158.62425781 -312.5215625 158.62425781 -311.57666016 157.63891602 C-310.74690674 156.78281738 -310.74690674 156.78281738 -309.90039062 155.90942383 C-308.48350196 154.45232686 -308.48350196 154.45232686 -307.58447266 152.43579102 C-306.92447266 152.43579102 -306.26447266 152.43579102 -305.58447266 152.43579102 C-305.58447266 151.77579102 -305.58447266 151.11579102 -305.58447266 150.43579102 C-304.92447266 150.43579102 -304.26447266 150.43579102 -303.58447266 150.43579102 C-303.58447266 149.77579102 -303.58447266 149.11579102 -303.58447266 148.43579102 C-302.92447266 148.43579102 -302.26447266 148.43579102 -301.58447266 148.43579102 C-301.58447266 147.77579102 -301.58447266 147.11579102 -301.58447266 146.43579102 C-300.92447266 146.43579102 -300.26447266 146.43579102 -299.58447266 146.43579102 C-299.25447266 145.44579102 -298.92447266 144.45579102 -298.58447266 143.43579102 C-297.92447266 143.43579102 -297.26447266 143.43579102 -296.58447266 143.43579102 C-296.58447266 142.77579102 -296.58447266 142.11579102 -296.58447266 141.43579102 C-295.92447266 141.43579102 -295.26447266 141.43579102 -294.58447266 141.43579102 C-294.58447266 140.77579102 -294.58447266 140.11579102 -294.58447266 139.43579102 C-293.92447266 139.43579102 -293.26447266 139.43579102 -292.58447266 139.43579102 C-292.58447266 138.77579102 -292.58447266 138.11579102 -292.58447266 137.43579102 C-291.92447266 137.43579102 -291.26447266 137.43579102 -290.58447266 137.43579102 C-290.58447266 136.77579102 -290.58447266 136.11579102 -290.58447266 135.43579102 C-289.92447266 135.43579102 -289.26447266 135.43579102 -288.58447266 135.43579102 C-288.58447266 134.77579102 -288.58447266 134.11579102 -288.58447266 133.43579102 C-287.22119141 132.06079102 -287.22119141 132.06079102 -285.27197266 130.43579102 C-281.87531902 127.55848512 -278.59134929 124.59550044 -275.33447266 121.56079102 C-270.66130706 117.29314805 -265.77491577 113.50887859 -260.67041016 109.77563477 C-257.43693235 107.32392185 -254.39191853 104.72451398 -251.33447266 102.06079102 C-244.72773212 96.34579476 -237.6254336 91.48763859 -230.37060547 86.63891602 C-227.97674918 85.02643326 -225.62408493 83.35840419 -223.27197266 81.68579102 C-214.67787193 75.65942228 -205.73450127 70.25712195 -196.58447266 65.12329102 C-195.58609375 64.56206543 -194.58771484 64.00083984 -193.55908203 63.42260742 C-172.49015386 51.63084734 -150.96056474 40.5539809 -128.58447266 31.43579102 C-127.87863037 31.14236816 -127.17278809 30.84894531 -126.44555664 30.54663086 C-119.48809479 27.69614573 -112.41054385 25.28987246 -105.27197266 22.93579102 C-104.13824219 22.5580957 -103.00451172 22.18040039 -101.83642578 21.79125977 C-83.05335016 15.56234238 -64.11286802 9.97004838 -44.77197266 5.74829102 C-43.46897217 5.46320679 -43.46897217 5.46320679 -42.13964844 5.17236328 C-39.29270356 4.56697239 -36.43978022 4.00053383 -33.58447266 3.43579102 C-32.35897516 3.18639298 -31.13347767 2.93699495 -29.87084389 2.68003941 C-19.83214329 0.71596435 -10.21179912 -0.01190747 0 0 Z " fill="#40C351" transform="translate(444.58447265625,-0.435791015625)"/>
<path d="M0 0 C1.57781166 -0.00901085 3.15561682 -0.0192265 4.7334137 -0.03053284 C8.96786092 -0.05671711 13.20212559 -0.06405326 17.43664598 -0.0659802 C20.10157498 -0.06813299 22.76645958 -0.07457587 25.43137741 -0.08247185 C34.78452168 -0.11013382 44.13753884 -0.1224905 53.49072266 -0.12011719 C62.11634295 -0.1183232 70.74139538 -0.14983847 79.36687243 -0.19734818 C86.84452164 -0.23702074 94.32198891 -0.25265025 101.7997421 -0.25075096 C106.23342472 -0.24999814 110.66660299 -0.25785553 115.10017776 -0.29028511 C144.7765623 -0.49225023 171.38936209 3.84086912 200.05273438 11.78930664 C202.13573302 12.35923642 204.22209297 12.89965314 206.31787109 13.42016602 C222.68201118 17.5428444 238.76741378 23.14333025 254.41552734 29.43579102 C255.95680829 30.03704115 257.49851136 30.63720977 259.04052734 31.23657227 C270.05534477 35.54375744 280.79448732 40.23619903 291.41552734 45.43579102 C292.08535645 45.76047363 292.75518555 46.08515625 293.4453125 46.41967773 C302.90698862 51.01221393 312.1302239 55.9490296 321.24707031 61.19116211 C323.59182869 62.53698267 325.94305513 63.87110536 328.29443359 65.20532227 C343.30770979 73.7638273 343.30770979 73.7638273 350.31005859 78.90063477 C352.95740263 80.83088746 355.68740244 82.62142361 358.41552734 84.43579102 C367.18087161 90.39153863 375.73374437 96.46824069 383.73535156 103.42578125 C387.41872159 106.62407232 391.20812064 109.62463058 395.10302734 112.56079102 C400.14197627 116.36441402 404.86923022 120.41804459 409.48974609 124.72094727 C411.30945304 126.49143041 411.30945304 126.49143041 413.41552734 127.43579102 C413.41552734 128.09579102 413.41552734 128.75579102 413.41552734 129.43579102 C414.07552734 129.43579102 414.73552734 129.43579102 415.41552734 129.43579102 C415.41552734 130.09579102 415.41552734 130.75579102 415.41552734 131.43579102 C416.07552734 131.43579102 416.73552734 131.43579102 417.41552734 131.43579102 C417.41552734 132.09579102 417.41552734 132.75579102 417.41552734 133.43579102 C418.07552734 133.43579102 418.73552734 133.43579102 419.41552734 133.43579102 C419.41552734 134.09579102 419.41552734 134.75579102 419.41552734 135.43579102 C420.07552734 135.43579102 420.73552734 135.43579102 421.41552734 135.43579102 C421.41552734 136.09579102 421.41552734 136.75579102 421.41552734 137.43579102 C422.07552734 137.43579102 422.73552734 137.43579102 423.41552734 137.43579102 C423.41552734 138.09579102 423.41552734 138.75579102 423.41552734 139.43579102 C424.07552734 139.43579102 424.73552734 139.43579102 425.41552734 139.43579102 C425.41552734 140.09579102 425.41552734 140.75579102 425.41552734 141.43579102 C426.07552734 141.43579102 426.73552734 141.43579102 427.41552734 141.43579102 C427.41552734 142.09579102 427.41552734 142.75579102 427.41552734 143.43579102 C428.40552734 143.76579102 429.39552734 144.09579102 430.41552734 144.43579102 C430.41552734 145.09579102 430.41552734 145.75579102 430.41552734 146.43579102 C431.07552734 146.43579102 431.73552734 146.43579102 432.41552734 146.43579102 C432.41552734 147.09579102 432.41552734 147.75579102 432.41552734 148.43579102 C433.07552734 148.43579102 433.73552734 148.43579102 434.41552734 148.43579102 C434.41552734 149.09579102 434.41552734 149.75579102 434.41552734 150.43579102 C435.07552734 150.43579102 435.73552734 150.43579102 436.41552734 150.43579102 C436.41552734 151.09579102 436.41552734 151.75579102 436.41552734 152.43579102 C437.07552734 152.43579102 437.73552734 152.43579102 438.41552734 152.43579102 C438.41552734 153.09579102 438.41552734 153.75579102 438.41552734 154.43579102 C439.00978516 154.69360352 439.60404297 154.95141602 440.21630859 155.21704102 C442.60855238 156.54276048 443.86334374 157.83957966 445.60302734 159.93579102 C448.24546524 163.06736103 450.94832312 166.1127633 453.72802734 169.12329102 C457.62254696 173.43437216 461.18221714 177.92190089 464.68432617 182.55004883 C467.34632898 186.06506626 470.08797969 189.48819875 472.91552734 192.87329102 C477.26388556 198.13749813 481.2070296 203.63771514 485.13427734 209.21704102 C486.91354517 211.7275148 488.72568474 214.18673998 490.60302734 216.62329102 C505.89694785 236.87278353 518.47245845 260.59783714 529.41552734 283.43579102 C529.75567871 284.13687988 530.09583008 284.83796875 530.44628906 285.56030273 C534.88324478 294.71037325 538.88568075 303.89118778 542.41552734 313.43579102 C544.58132934 319.01534784 546.8472369 324.51973802 549.38818359 329.93969727 C556.81803542 347.99169468 561.71317546 367.51390438 566.41552734 386.43579102 C566.66044922 387.40371582 566.90537109 388.37164062 567.15771484 389.36889648 C567.96218335 392.55540817 568.75309865 395.74502892 569.54052734 398.93579102 C569.7823877 399.89557861 570.02424805 400.85536621 570.2734375 401.84423828 C571.04683952 405.03087724 571.73563228 408.22783298 572.41552734 411.43579102 C572.80193642 413.18698494 572.80193642 413.18698494 573.19615173 414.97355652 C576.40429667 431.1136067 575.87425607 447.56836857 575.85143542 463.94643617 C575.84830703 467.42230503 575.85447604 470.89813465 575.86047417 474.37399787 C575.87443779 482.58937279 575.87302722 490.80464356 575.86157227 499.02001953 C575.85010357 507.42988994 575.86416453 515.83944095 575.89096874 524.24926931 C575.91328737 531.53063788 575.91972699 538.8119074 575.91389233 546.09330767 C575.9105593 550.41532378 575.91268888 554.73713551 575.93014336 559.05912209 C575.99667654 577.24464597 575.65429653 594.63619466 571.41552734 612.43579102 C571.11728706 613.81256553 570.82308859 615.19022415 570.53366089 616.56887817 C569.84926802 619.80678154 569.11179475 623.02710865 568.35302734 626.24829102 C568.11003906 627.31370117 567.86705078 628.37911133 567.61669922 629.47680664 C566.3777194 634.80409123 564.96236861 639.959932 563.16040039 645.12182617 C562.31578462 647.74564402 561.67144784 650.38340288 561.03271484 653.06469727 C559.43060268 659.64085729 557.35534917 666.03623599 555.19140625 672.44433594 C554.54296621 674.36606316 553.90256474 676.29033017 553.26318359 678.21508789 C550.53603946 686.37884883 547.58109969 694.43211123 544.41552734 702.43579102 C544.04476074 703.37656494 543.67399414 704.31733887 543.29199219 705.28662109 C538.79567292 716.61221738 534.03817139 727.62106576 528.41552734 738.43579102 C527.79242233 739.69196542 527.17275621 740.94985023 526.55615234 742.20922852 C519.27228308 757.0694993 511.21135697 771.41953579 502.41552734 785.43579102 C501.64825798 786.69911671 500.8827095 787.96348875 500.11865234 789.22875977 C494.12039985 799.09806191 487.47636653 808.30361195 480.41552734 817.43579102 C479.57255824 818.53434962 478.73008311 819.63328751 477.88818359 820.73266602 C476.27517716 822.83454149 474.6566344 824.93217936 473.03271484 827.02563477 C471.10893611 829.51501332 469.22859794 832.03304136 467.36083984 834.56469727 C461.24260375 842.80445279 454.92411373 850.33057589 447.48583984 857.40844727 C445.28146532 859.52558948 443.26421264 861.72963336 441.27880859 864.05297852 C436.79397802 869.24928538 431.93319067 874.06794254 427.07299805 878.90869141 C425.48093768 880.49539048 423.89429744 882.08736843 422.30810547 883.67993164 C417.37466761 888.61654656 412.40328998 893.46036809 407.09448242 897.99755859 C404.74182491 900.01290037 402.49257828 902.13495016 400.22802734 904.24829102 C395.19928889 908.83823373 389.94368822 912.98762882 384.51318359 917.08032227 C381.88278401 919.08048739 379.33300809 921.13913742 376.79052734 923.24829102 C369.81630272 928.85016822 362.3532087 933.77409159 354.92578125 938.74780273 C352.56105557 940.33793241 350.21236244 941.94946786 347.86474609 943.56469727 C321.5650097 961.40994581 291.02126088 977.63203521 261.29052734 988.81079102 C256.5896024 990.58996052 251.93658645 992.45579033 247.29052734 994.37329102 C227.05371163 1002.57214645 205.51525353 1007.95182955 184.41552734 1013.43579102 C183.37138672 1013.71293945 182.32724609 1013.99008789 181.25146484 1014.27563477 C175.40462975 1015.79399892 169.59104581 1016.98137801 163.62255859 1017.90844727 C160.17787926 1018.47486835 156.77357063 1019.17617924 153.35302734 1019.87329102 C126.43249924 1024.87936369 99.72237015 1024.90767931 72.42822266 1024.8269043 C66.5890834 1024.80981354 60.75035435 1024.81996152 54.91122913 1024.83723068 C25.55450733 1024.9109262 -2.60626219 1024.18877747 -31.38671875 1017.90014648 C-34.77246451 1017.18478452 -38.17662216 1016.5996764 -41.58447266 1015.99829102 C-63.83427649 1011.83341282 -85.36402195 1004.86690454 -106.83447266 997.81079102 C-107.94056885 997.45082031 -109.04666504 997.09084961 -110.1862793 996.7199707 C-116.29958056 994.68636704 -122.13854585 992.37574281 -127.9699707 989.63867188 C-130.44273967 988.50099957 -132.9297427 987.47217764 -135.46337891 986.47875977 C-141.561527 984.08025936 -147.53462982 981.40894072 -153.52197266 978.74829102 C-155.73887613 977.76399096 -157.95629964 976.78086107 -160.17431641 975.79907227 C-161.62632446 975.1538562 -161.62632446 975.1538562 -163.10766602 974.49560547 C-176.26111001 968.86730577 -191.1167884 973.32098613 -204.14697266 977.18579102 C-205.71603199 977.63581239 -207.28569495 978.08373453 -208.85595703 978.52954102 C-211.18081673 979.18988486 -213.50511733 979.85167034 -215.82705688 980.5222168 C-222.21765142 982.36231616 -228.65004658 983.98808613 -235.10766602 985.57348633 C-239.29214587 986.6113055 -243.43993271 987.75041225 -247.58447266 988.93579102 C-253.97241267 990.73803332 -260.38050352 992.40663191 -266.82666016 993.98657227 C-271.10885304 995.04432509 -275.34914606 996.20448 -279.58447266 997.43579102 C-287.20140186 999.6452163 -294.88398991 1001.54635218 -302.58447266 1003.43579102 C-313.03471887 1006.00312273 -323.4490528 1008.6397411 -333.8059082 1011.56274414 C-340.05651927 1013.31567296 -346.33662471 1014.92994502 -352.64961243 1016.4432373 C-356.99492357 1017.49443969 -361.27883321 1018.62496829 -365.53955078 1019.98095703 C-380.55721803 1024.60780686 -394.7719746 1025.24670552 -410.41723633 1024.99829102 C-413.79017633 1024.94532048 -417.16078156 1024.91972573 -420.53395557 1024.91092682 C-423.78659172 1024.90067033 -427.03899412 1024.87165245 -430.29150391 1024.84204102 C-431.49958206 1024.83354126 -432.70766022 1024.8250415 -433.9523468 1024.81628418 C-435.61260139 1024.78746155 -435.61260139 1024.78746155 -437.30639648 1024.75805664 C-438.28071121 1024.74440063 -439.25502594 1024.73074463 -440.25886536 1024.7166748 C-442.58447266 1024.43579102 -442.58447266 1024.43579102 -444.58447266 1022.43579102 C-444.85862732 1020.31105042 -444.85862732 1020.31105042 -444.89086914 1017.64501953 C-444.90685654 1016.64539688 -444.92284393 1015.64577423 -444.9393158 1014.61585999 C-444.9446785 1013.52647629 -444.9500412 1012.43709259 -444.95556641 1011.31469727 C-444.96459488 1010.18619858 -444.97362335 1009.05769989 -444.98292542 1007.89500427 C-444.99747248 1005.49155335 -445.00632564 1003.08806243 -445.01000977 1000.68457031 C-445.02173468 997.07162166 -445.07072859 993.46047924 -445.12158203 989.84790039 C-445.2145724 976.67111435 -444.32349946 964.93287496 -440.21530151 952.38381958 C-439.30626936 949.57668642 -438.54555686 946.73301996 -437.77587891 943.88500977 C-437.23424323 941.96406047 -436.69128321 940.04348408 -436.14697266 938.12329102 C-432.21177099 924.15089595 -428.35592098 910.15757428 -424.64697266 896.12329102 C-422.60703285 888.43754268 -420.44918637 880.78570186 -418.29833984 873.13037109 C-414.65593243 860.1530773 -411.09089302 847.15473544 -407.64697266 834.12329102 C-405.89505723 827.52271341 -404.05645368 820.94784743 -402.20947266 814.37329102 C-399.15528087 803.49862911 -396.1329642 792.61651553 -393.20263672 781.70776367 C-392.66757209 779.74121096 -392.10865911 777.78117623 -391.54541016 775.82250977 C-387.78779773 762.28456965 -389.74885541 753.79309983 -396.35205078 741.74145508 C-398.60878856 737.51945992 -400.65478853 733.19629972 -402.70947266 728.87329102 C-403.13486328 727.9802124 -403.56025391 727.08713379 -403.99853516 726.16699219 C-408.71838645 716.16754015 -412.75508355 705.95833842 -416.46337891 695.54125977 C-417.34584521 693.09679736 -418.25143327 690.66580757 -419.17431641 688.23657227 C-424.00615348 675.45328791 -428.36221122 662.51459914 -431.63916016 649.23657227 C-432.47101503 645.8919657 -433.40537177 642.61050121 -434.39697266 639.31079102 C-436.17456518 633.12238121 -437.70773567 626.8987354 -439.14697266 620.62329102 C-439.44341675 619.34591064 -439.44341675 619.34591064 -439.74584961 618.04272461 C-442.94227577 603.8741409 -445.03736385 590.42536013 -444.98852539 575.89208984 C-444.99424912 574.31938194 -445.00122097 572.74667817 -445.00932312 571.17398071 C-445.02705352 566.95664114 -445.0261241 562.7395119 -445.02038074 558.52214646 C-445.01725793 554.97430367 -445.02341557 551.42649952 -445.02941948 547.87866229 C-445.04339853 539.49264225 -445.04196034 531.10672422 -445.03051758 522.72070312 C-445.01905629 514.13251315 -445.03309377 505.54463621 -445.05991405 496.95648748 C-445.08222975 489.52654094 -445.08867268 482.09669149 -445.08283764 474.66671389 C-445.07950285 470.25412565 -445.08164609 465.84173759 -445.09908867 461.42917824 C-445.16490657 443.05279692 -444.9175086 425.41523106 -440.58447266 407.43579102 C-440.09736376 405.17828699 -439.61131111 402.92055404 -439.12744141 400.66235352 C-438.68379723 398.79320586 -438.23210599 396.92594796 -437.77197266 395.06079102 C-437.39359253 393.51174072 -437.39359253 393.51174072 -437.00756836 391.93139648 C-424.17486453 340.24727946 -404.6685474 291.24465818 -377.58447266 245.43579102 C-377.18341309 244.75500488 -376.78235352 244.07421875 -376.36914062 243.37280273 C-362.37763735 219.6582909 -362.37763735 219.6582909 -354.52978516 209.91235352 C-351.95386942 206.63297484 -349.5293067 203.250903 -347.08447266 199.87329102 C-343.7153196 195.24028089 -340.29132563 190.79354251 -336.42822266 186.55688477 C-334.50353221 184.3426752 -332.7225293 182.03881548 -330.94140625 179.70849609 C-325.50271653 172.60336366 -319.64402795 166.04504134 -313.44775391 159.59008789 C-312.5215625 158.62425781 -312.5215625 158.62425781 -311.57666016 157.63891602 C-310.74690674 156.78281738 -310.74690674 156.78281738 -309.90039062 155.90942383 C-308.48350196 154.45232686 -308.48350196 154.45232686 -307.58447266 152.43579102 C-306.92447266 152.43579102 -306.26447266 152.43579102 -305.58447266 152.43579102 C-305.58447266 151.77579102 -305.58447266 151.11579102 -305.58447266 150.43579102 C-304.92447266 150.43579102 -304.26447266 150.43579102 -303.58447266 150.43579102 C-303.58447266 149.77579102 -303.58447266 149.11579102 -303.58447266 148.43579102 C-302.92447266 148.43579102 -302.26447266 148.43579102 -301.58447266 148.43579102 C-301.58447266 147.77579102 -301.58447266 147.11579102 -301.58447266 146.43579102 C-300.92447266 146.43579102 -300.26447266 146.43579102 -299.58447266 146.43579102 C-299.25447266 145.44579102 -298.92447266 144.45579102 -298.58447266 143.43579102 C-297.92447266 143.43579102 -297.26447266 143.43579102 -296.58447266 143.43579102 C-296.58447266 142.77579102 -296.58447266 142.11579102 -296.58447266 141.43579102 C-295.92447266 141.43579102 -295.26447266 141.43579102 -294.58447266 141.43579102 C-294.58447266 140.77579102 -294.58447266 140.11579102 -294.58447266 139.43579102 C-293.92447266 139.43579102 -293.26447266 139.43579102 -292.58447266 139.43579102 C-292.58447266 138.77579102 -292.58447266 138.11579102 -292.58447266 137.43579102 C-291.92447266 137.43579102 -291.26447266 137.43579102 -290.58447266 137.43579102 C-290.58447266 136.77579102 -290.58447266 136.11579102 -290.58447266 135.43579102 C-289.92447266 135.43579102 -289.26447266 135.43579102 -288.58447266 135.43579102 C-288.58447266 134.77579102 -288.58447266 134.11579102 -288.58447266 133.43579102 C-287.22119141 132.06079102 -287.22119141 132.06079102 -285.27197266 130.43579102 C-281.87531902 127.55848512 -278.59134929 124.59550044 -275.33447266 121.56079102 C-270.66130706 117.29314805 -265.77491577 113.50887859 -260.67041016 109.77563477 C-257.43693235 107.32392185 -254.39191853 104.72451398 -251.33447266 102.06079102 C-244.72773212 96.34579476 -237.6254336 91.48763859 -230.37060547 86.63891602 C-227.97674918 85.02643326 -225.62408493 83.35840419 -223.27197266 81.68579102 C-214.67787193 75.65942228 -205.73450127 70.25712195 -196.58447266 65.12329102 C-195.58609375 64.56206543 -194.58771484 64.00083984 -193.55908203 63.42260742 C-172.49015386 51.63084734 -150.96056474 40.5539809 -128.58447266 31.43579102 C-127.87863037 31.14236816 -127.17278809 30.84894531 -126.44555664 30.54663086 C-119.48809479 27.69614573 -112.41054385 25.28987246 -105.27197266 22.93579102 C-104.13824219 22.5580957 -103.00451172 22.18040039 -101.83642578 21.79125977 C-83.05335016 15.56234238 -64.11286802 9.97004838 -44.77197266 5.74829102 C-43.46897217 5.46320679 -43.46897217 5.46320679 -42.13964844 5.17236328 C-39.29270356 4.56697239 -36.43978022 4.00053383 -33.58447266 3.43579102 C-32.35897516 3.18639298 -31.13347767 2.93699495 -29.87084389 2.68003941 C-19.83214329 0.71596435 -10.21179912 -0.01190747 0 0 Z M17.41552734 107.43579102 C15.46006752 107.65178526 13.50437789 107.86572247 11.54833984 108.07641602 C-8.1869284 110.40906285 -28.09490671 113.8582219 -46.95947266 120.22094727 C-50.32662935 121.34938017 -53.70203558 122.34460202 -57.11816406 123.30883789 C-63.89576491 125.22609709 -70.35857324 127.42136235 -76.82275391 130.25219727 C-79.56731562 131.428438 -82.33019865 132.44654316 -85.14697266 133.43579102 C-88.76092622 134.72491888 -92.25854071 136.14197987 -95.74462891 137.74438477 C-96.70393311 138.18508301 -97.6632373 138.62578125 -98.65161133 139.07983398 C-99.61945557 139.5272998 -100.5872998 139.97476563 -101.58447266 140.43579102 C-102.47690674 140.84587402 -103.36934082 141.25595703 -104.28881836 141.6784668 C-132.18021767 154.56164913 -158.63785383 170.09564365 -182.58447266 189.43579102 C-183.41076172 190.08290039 -184.23705078 190.73000977 -185.08837891 191.39672852 C-194.36439754 198.69247351 -203.72791933 206.21002972 -211.89550781 214.74975586 C-213.63168889 216.48292535 -215.44451945 218.05994675 -217.31494141 219.64672852 C-221.49178669 223.27924579 -225.2739756 227.18016281 -229.02197266 231.24829102 C-229.67375488 231.95115234 -230.32553711 232.65401367 -230.99707031 233.37817383 C-232.28493605 234.76933746 -233.57082118 236.16233787 -234.85449219 237.55737305 C-236.30862258 239.13627218 -237.77168929 240.7069346 -239.23681641 242.27563477 C-244.82309226 248.3331606 -249.71205264 254.79775539 -254.58447266 261.43579102 C-256.04201466 263.35305953 -257.50035302 265.26972288 -258.95947266 267.18579102 C-269.08076705 280.72762684 -278.10644684 294.81162409 -286.58447266 309.43579102 C-287.28781738 310.6486377 -287.28781738 310.6486377 -288.00537109 311.88598633 C-292.63040513 319.91206869 -297.01901347 327.85790587 -300.39697266 336.50219727 C-301.71782517 339.76522437 -303.23342848 342.89466654 -304.77197266 346.06079102 C-316.68681384 371.13257393 -323.89133016 397.31760494 -329.87524414 424.30810547 C-330.36017477 426.44664118 -330.86590094 428.5805392 -331.3894043 430.70996094 C-333.10364873 437.74226505 -334.16000635 444.53176453 -334.64697266 451.74829102 C-334.80080764 453.75108215 -334.95706889 455.75368835 -335.11572266 457.75610352 C-335.19177734 458.72193359 -335.26783203 459.68776367 -335.34619141 460.68286133 C-335.77766787 465.6678292 -336.44045711 470.61623956 -337.11962891 475.57250977 C-338.46508792 486.75451786 -338.78374495 497.81345491 -338.77197266 509.06079102 C-338.77236542 509.85948608 -338.77275818 510.65818115 -338.77316284 511.4810791 C-338.76716166 521.66571948 -338.52221288 531.65566597 -337.07275391 541.75219727 C-336.58904709 545.40128151 -336.44044006 548.94582968 -336.33447266 552.62329102 C-335.58277444 566.04647347 -332.35297375 579.30603853 -329.58447266 592.43579102 C-329.37806152 593.42305176 -329.17165039 594.4103125 -328.95898438 595.42749023 C-323.172192 622.63390236 -314.06921257 649.13299991 -302.58447266 674.43579102 C-302.27783691 675.11754395 -301.97120117 675.79929687 -301.65527344 676.50170898 C-295.45475281 690.23671398 -288.42422485 703.38952378 -280.38916016 716.14282227 C-280.02465759 716.72402328 -279.66015503 717.3052243 -279.28460693 717.90403748 C-277.46288372 720.80734301 -275.62781678 723.7002853 -273.76611328 726.578125 C-273.09515625 727.63974854 -272.42419922 728.70137207 -271.73291016 729.79516602 C-271.12624512 730.7384375 -270.51958008 731.68170898 -269.89453125 732.65356445 C-267.84929971 736.99710874 -268.24354105 740.24113314 -269.53759766 744.77563477 C-269.96556641 745.96286133 -270.39353516 747.15008789 -270.83447266 748.37329102 C-273.31848128 755.29631504 -275.20817348 762.33658219 -277.06433105 769.44900513 C-277.89300752 772.61430225 -278.73955113 775.77479781 -279.58447266 778.93579102 C-279.91447266 780.17329102 -280.24447266 781.41079102 -280.58447266 782.68579102 C-281.58447266 786.43579102 -282.58447266 790.18579102 -283.58447266 793.93579102 C-284.07367188 795.77113403 -284.07367188 795.77113403 -284.57275391 797.64355469 C-285.27736292 800.28464825 -285.98299752 802.92545003 -286.68994141 805.56591797 C-286.96161133 806.58171936 -286.96161133 806.58171936 -287.23876953 807.61804199 C-287.74296223 809.50310862 -288.24768563 811.38803328 -288.75244141 813.27294922 C-289.39561545 815.71787874 -290.00448771 818.16308314 -290.58447266 820.62329102 C-291.45566932 823.94472829 -292.47504867 827.12659434 -293.58447266 830.37329102 C-294.74872941 833.79782645 -295.81007437 837.13985955 -296.52197266 840.68579102 C-297.37708985 844.88570292 -298.64950576 848.92283844 -299.95947266 852.99829102 C-303.35765353 863.63979703 -306.35336383 874.30656723 -307.58447266 885.43579102 C-306.67181641 885.18055664 -306.67181641 885.18055664 -305.74072266 884.92016602 C-300.35211138 883.43037349 -294.9508936 882.02143222 -289.52197266 880.68579102 C-282.19908703 878.88240055 -274.92403283 876.91511791 -267.64697266 874.93579102 C-259.44256171 872.70422898 -251.23300126 870.59745471 -242.94238281 868.71313477 C-238.8485203 867.77083967 -234.93231602 866.61518655 -230.97900391 865.20922852 C-227.08972592 863.95298538 -223.11643185 863.02702695 -219.1484375 862.05688477 C-213.79672729 860.74696536 -208.47041276 859.35591687 -203.14697266 857.93579102 C-196.34609082 856.12630631 -189.52501655 854.45981119 -182.66479492 852.89160156 C-178.08283462 851.83006632 -173.59221226 850.59143315 -169.08447266 849.24829102 C-166.91901768 848.6397957 -164.75248742 848.0351021 -162.58447266 847.43579102 C-161.78912109 847.18700195 -160.99376953 846.93821289 -160.17431641 846.68188477 C-155.06664205 845.50461681 -152.28543382 846.89609486 -147.89697266 849.62329102 C-146.78367899 850.36481084 -145.67179015 851.10844254 -144.56103516 851.85375977 C-139.80241054 855.02162998 -134.79614403 857.71638375 -129.77197266 860.43579102 C-128.81959717 860.95189941 -127.86722168 861.46800781 -126.88598633 861.99975586 C-108.07982848 872.1356569 -89.18032381 880.81779836 -68.92089844 887.64672852 C-66.81427734 888.35818091 -64.71242425 889.08182274 -62.61181641 889.81079102 C-53.03808027 893.08736381 -43.36858773 895.87086843 -33.58447266 898.43579102 C-32.39023682 898.75314209 -32.39023682 898.75314209 -31.171875 899.0769043 C-17.30107155 902.72217024 -3.34446979 905.05987808 10.86618042 906.95176697 C13.17978291 907.26727268 15.491216 907.59925871 17.79972839 907.95007324 C26.86588562 909.28085396 35.73882523 909.74719571 44.91162109 909.73657227 C46.3572654 909.74048113 47.80290859 909.74482007 49.24855042 909.7495575 C52.25956968 909.75694916 55.27047161 909.75678285 58.28149414 909.75146484 C61.31322139 909.74685354 64.3445456 909.75368634 67.3762207 909.77197266 C85.60870539 909.88088295 103.36437688 909.33864127 121.41552734 906.43579102 C122.85084821 906.21795768 124.28630348 906.0010071 125.72192383 905.78515625 C129.29452127 905.22805855 132.85506359 904.62787428 136.41552734 903.99829102 C137.64263428 903.78293701 138.86974121 903.56758301 140.1340332 903.34570312 C149.0184868 901.7541677 157.73336867 899.92533086 166.41552734 897.43579102 C167.17559082 897.21810059 167.9356543 897.00041016 168.71875 896.77612305 C174.64041855 895.06797197 180.53325137 893.27465526 186.41552734 891.43579102 C187.18687012 891.19602539 187.95821289 890.95625977 188.75292969 890.70922852 C199.94055347 887.20240823 210.67864419 882.93693928 221.43310547 878.27856445 C223.81983866 877.26390891 226.23675168 876.34457131 228.66552734 875.43579102 C233.51595275 873.52425184 238.05482199 871.04571568 242.62548828 868.55541992 C246.67148871 866.35116533 250.75548566 864.29535196 254.91552734 862.31079102 C272.11644377 853.7492489 288.10683736 842.99283851 303.41552734 831.43579102 C304.0154248 830.98751953 304.61532227 830.53924805 305.23339844 830.07739258 C313.56428966 823.84749883 321.57971047 817.27373245 329.41552734 810.43579102 C330.29853516 809.6662207 331.18154297 808.89665039 332.09130859 808.10375977 C338.7890542 802.10389792 345.18560081 795.79292389 351.56646729 789.46008301 C352.57368966 788.4609024 353.58238765 787.46320661 354.5927124 786.46716309 C361.33699708 779.80813512 367.5147198 772.8630064 373.41552734 765.43579102 C374.48816157 764.14194243 375.56454384 762.85118449 376.64599609 761.56469727 C395.87103749 738.47486086 411.42071047 712.95930109 425.41552734 686.43579102 C425.92019531 685.48639648 425.92019531 685.48639648 426.43505859 684.51782227 C429.85985456 678.0454105 432.66403592 671.47441981 435.21240234 664.61157227 C436.30182447 661.73592229 437.49172557 658.93793804 438.72802734 656.12329102 C442.92705987 646.13568684 446.10922046 635.74462298 449.41552734 625.43579102 C449.78726074 624.28071045 449.78726074 624.28071045 450.16650391 623.10229492 C456.25729424 603.95532588 460.54656447 584.29444801 462.98461914 564.36010742 C463.30819971 562.16415955 463.71127028 559.97969024 464.15307617 557.80444336 C466.75194863 544.82908634 466.83980496 532.03640473 466.75170898 518.83569336 C466.72828529 515.10190781 466.73114913 511.36884958 466.73779297 507.63500977 C469.09350812 473.40232112 469.09350812 473.40232112 461.41552734 442.43579102 C461.1098783 439.91494294 460.8477641 437.40012926 460.60302734 434.87329102 C459.66330256 426.13237359 457.77124096 417.89219886 455.41552734 409.43579102 C455.09455078 408.27563477 454.77357422 407.11547852 454.44287109 405.92016602 C453.4555853 402.41869899 452.43760049 398.92725255 451.41552734 395.43579102 C450.99564806 393.96721484 450.57640651 392.49845622 450.15771484 391.02954102 C449.72307508 389.51905064 449.28818282 388.0086329 448.85302734 386.49829102 C448.55634155 385.45137085 448.55634155 385.45137085 448.25366211 384.38330078 C446.95151588 379.90230684 445.28734796 375.71851658 443.41552734 371.43579102 C442.76667494 369.54798817 442.14062864 367.65215221 441.54052734 365.74829102 C437.83096681 354.49409796 432.8202667 344.02376343 427.45507812 333.49145508 C426.44694743 331.4979228 425.4571395 329.49649575 424.47412109 327.49047852 C410.76682607 299.56499283 394.36654429 273.37555827 373.76611328 249.99682617 C371.70534471 247.61494724 369.75365453 245.14831021 367.79052734 242.68579102 C364.01601881 238.02598866 359.91651653 233.83117893 355.62646484 229.64672852 C353.88163092 227.90189459 352.3139149 226.18064167 350.79052734 224.24829102 C348.26804429 221.26114003 345.55034405 218.87555091 342.57958984 216.34985352 C340.28997781 214.3247454 338.17134065 212.18933932 336.04052734 209.99829102 C332.33833678 206.25838714 328.47753887 202.94874201 324.32568359 199.72094727 C322.11637744 197.98612297 319.9453746 196.22776609 317.78662109 194.43188477 C308.67252354 186.86738769 299.30789734 179.94607454 289.41552734 173.43579102 C288.69123535 172.95835449 287.96694336 172.48091797 287.22070312 171.98901367 C252.80866266 149.37538708 214.37281029 129.29182134 173.94287109 120.04907227 C171.49294396 119.45457681 169.16743503 118.7095341 166.79052734 117.87329102 C163.79542244 116.83017322 160.87203246 116.07722686 157.75537109 115.49438477 C154.38040055 114.84095537 151.04340669 114.12108116 147.70849609 113.28735352 C119.85790375 106.46493934 91.86111983 105.06571767 63.29052734 105.06079102 C62.09573761 105.05888763 60.90094788 105.05698425 59.66995239 105.05502319 C45.4471249 105.05759144 31.52281896 105.62520162 17.41552734 107.43579102 Z " fill="#FDFEFD" transform="translate(444.58447265625,-0.435791015625)"/>
<path d="M0 0 C1.57781166 -0.00901085 3.15561682 -0.0192265 4.7334137 -0.03053284 C8.96786092 -0.05671711 13.20212559 -0.06405326 17.43664598 -0.0659802 C20.10157498 -0.06813299 22.76645958 -0.07457587 25.43137741 -0.08247185 C34.78452168 -0.11013382 44.13753884 -0.1224905 53.49072266 -0.12011719 C62.11634295 -0.1183232 70.74139538 -0.14983847 79.36687243 -0.19734818 C86.84452164 -0.23702074 94.32198891 -0.25265025 101.7997421 -0.25075096 C106.23342472 -0.24999814 110.66660299 -0.25785553 115.10017776 -0.29028511 C144.7765623 -0.49225023 171.38936209 3.84086912 200.05273438 11.78930664 C202.13573302 12.35923642 204.22209297 12.89965314 206.31787109 13.42016602 C222.68201118 17.5428444 238.76741378 23.14333025 254.41552734 29.43579102 C255.95680829 30.03704115 257.49851136 30.63720977 259.04052734 31.23657227 C270.05534477 35.54375744 280.79448732 40.23619903 291.41552734 45.43579102 C292.08535645 45.76047363 292.75518555 46.08515625 293.4453125 46.41967773 C302.90698862 51.01221393 312.1302239 55.9490296 321.24707031 61.19116211 C323.59182869 62.53698267 325.94305513 63.87110536 328.29443359 65.20532227 C343.30770979 73.7638273 343.30770979 73.7638273 350.31005859 78.90063477 C352.95740263 80.83088746 355.68740244 82.62142361 358.41552734 84.43579102 C367.18087161 90.39153863 375.73374437 96.46824069 383.73535156 103.42578125 C387.41872159 106.62407232 391.20812064 109.62463058 395.10302734 112.56079102 C400.14197627 116.36441402 404.86923022 120.41804459 409.48974609 124.72094727 C411.30945304 126.49143041 411.30945304 126.49143041 413.41552734 127.43579102 C413.41552734 128.09579102 413.41552734 128.75579102 413.41552734 129.43579102 C414.07552734 129.43579102 414.73552734 129.43579102 415.41552734 129.43579102 C415.41552734 130.09579102 415.41552734 130.75579102 415.41552734 131.43579102 C416.07552734 131.43579102 416.73552734 131.43579102 417.41552734 131.43579102 C417.41552734 132.09579102 417.41552734 132.75579102 417.41552734 133.43579102 C418.07552734 133.43579102 418.73552734 133.43579102 419.41552734 133.43579102 C419.41552734 134.09579102 419.41552734 134.75579102 419.41552734 135.43579102 C420.07552734 135.43579102 420.73552734 135.43579102 421.41552734 135.43579102 C421.41552734 136.09579102 421.41552734 136.75579102 421.41552734 137.43579102 C422.07552734 137.43579102 422.73552734 137.43579102 423.41552734 137.43579102 C423.41552734 138.09579102 423.41552734 138.75579102 423.41552734 139.43579102 C424.07552734 139.43579102 424.73552734 139.43579102 425.41552734 139.43579102 C425.41552734 140.09579102 425.41552734 140.75579102 425.41552734 141.43579102 C426.07552734 141.43579102 426.73552734 141.43579102 427.41552734 141.43579102 C427.41552734 142.09579102 427.41552734 142.75579102 427.41552734 143.43579102 C428.40552734 143.76579102 429.39552734 144.09579102 430.41552734 144.43579102 C430.41552734 145.09579102 430.41552734 145.75579102 430.41552734 146.43579102 C431.07552734 146.43579102 431.73552734 146.43579102 432.41552734 146.43579102 C432.41552734 147.09579102 432.41552734 147.75579102 432.41552734 148.43579102 C433.07552734 148.43579102 433.73552734 148.43579102 434.41552734 148.43579102 C434.41552734 149.09579102 434.41552734 149.75579102 434.41552734 150.43579102 C435.07552734 150.43579102 435.73552734 150.43579102 436.41552734 150.43579102 C436.41552734 151.09579102 436.41552734 151.75579102 436.41552734 152.43579102 C437.07552734 152.43579102 437.73552734 152.43579102 438.41552734 152.43579102 C438.41552734 153.09579102 438.41552734 153.75579102 438.41552734 154.43579102 C439.00978516 154.69360352 439.60404297 154.95141602 440.21630859 155.21704102 C442.60855238 156.54276048 443.86334374 157.83957966 445.60302734 159.93579102 C448.24546524 163.06736103 450.94832312 166.1127633 453.72802734 169.12329102 C457.62254696 173.43437216 461.18221714 177.92190089 464.68432617 182.55004883 C467.34632898 186.06506626 470.08797969 189.48819875 472.91552734 192.87329102 C477.26388556 198.13749813 481.2070296 203.63771514 485.13427734 209.21704102 C486.91354517 211.7275148 488.72568474 214.18673998 490.60302734 216.62329102 C505.89694785 236.87278353 518.47245845 260.59783714 529.41552734 283.43579102 C529.75567871 284.13687988 530.09583008 284.83796875 530.44628906 285.56030273 C534.88324478 294.71037325 538.88568075 303.89118778 542.41552734 313.43579102 C544.58132934 319.01534784 546.8472369 324.51973802 549.38818359 329.93969727 C556.81803542 347.99169468 561.71317546 367.51390438 566.41552734 386.43579102 C566.66044922 387.40371582 566.90537109 388.37164062 567.15771484 389.36889648 C567.96218335 392.55540817 568.75309865 395.74502892 569.54052734 398.93579102 C569.7823877 399.89557861 570.02424805 400.85536621 570.2734375 401.84423828 C571.04683952 405.03087724 571.73563228 408.22783298 572.41552734 411.43579102 C572.80193642 413.18698494 572.80193642 413.18698494 573.19615173 414.97355652 C576.40429667 431.1136067 575.87425607 447.56836857 575.85143542 463.94643617 C575.84830703 467.42230503 575.85447604 470.89813465 575.86047417 474.37399787 C575.87443779 482.58937279 575.87302722 490.80464356 575.86157227 499.02001953 C575.85010357 507.42988994 575.86416453 515.83944095 575.89096874 524.24926931 C575.91328737 531.53063788 575.91972699 538.8119074 575.91389233 546.09330767 C575.9105593 550.41532378 575.91268888 554.73713551 575.93014336 559.05912209 C575.99667654 577.24464597 575.65429653 594.63619466 571.41552734 612.43579102 C571.11728706 613.81256553 570.82308859 615.19022415 570.53366089 616.56887817 C569.84926802 619.80678154 569.11179475 623.02710865 568.35302734 626.24829102 C568.11003906 627.31370117 567.86705078 628.37911133 567.61669922 629.47680664 C566.3777194 634.80409123 564.96236861 639.959932 563.16040039 645.12182617 C562.31578462 647.74564402 561.67144784 650.38340288 561.03271484 653.06469727 C559.43060268 659.64085729 557.35534917 666.03623599 555.19140625 672.44433594 C554.54296621 674.36606316 553.90256474 676.29033017 553.26318359 678.21508789 C550.53603946 686.37884883 547.58109969 694.43211123 544.41552734 702.43579102 C544.04476074 703.37656494 543.67399414 704.31733887 543.29199219 705.28662109 C538.79567292 716.61221738 534.03817139 727.62106576 528.41552734 738.43579102 C527.79242233 739.69196542 527.17275621 740.94985023 526.55615234 742.20922852 C519.27228308 757.0694993 511.21135697 771.41953579 502.41552734 785.43579102 C501.64825798 786.69911671 500.8827095 787.96348875 500.11865234 789.22875977 C494.12039985 799.09806191 487.47636653 808.30361195 480.41552734 817.43579102 C479.57255824 818.53434962 478.73008311 819.63328751 477.88818359 820.73266602 C476.27517716 822.83454149 474.6566344 824.93217936 473.03271484 827.02563477 C471.10893611 829.51501332 469.22859794 832.03304136 467.36083984 834.56469727 C461.24260375 842.80445279 454.92411373 850.33057589 447.48583984 857.40844727 C445.28146532 859.52558948 443.26421264 861.72963336 441.27880859 864.05297852 C436.79397802 869.24928538 431.93319067 874.06794254 427.07299805 878.90869141 C425.48093768 880.49539048 423.89429744 882.08736843 422.30810547 883.67993164 C417.37466761 888.61654656 412.40328998 893.46036809 407.09448242 897.99755859 C404.74182491 900.01290037 402.49257828 902.13495016 400.22802734 904.24829102 C395.19928889 908.83823373 389.94368822 912.98762882 384.51318359 917.08032227 C381.88278401 919.08048739 379.33300809 921.13913742 376.79052734 923.24829102 C369.81630272 928.85016822 362.3532087 933.77409159 354.92578125 938.74780273 C352.56105557 940.33793241 350.21236244 941.94946786 347.86474609 943.56469727 C321.5650097 961.40994581 291.02126088 977.63203521 261.29052734 988.81079102 C256.5896024 990.58996052 251.93658645 992.45579033 247.29052734 994.37329102 C227.05371163 1002.57214645 205.51525353 1007.95182955 184.41552734 1013.43579102 C183.37138672 1013.71293945 182.32724609 1013.99008789 181.25146484 1014.27563477 C175.40462975 1015.79399892 169.59104581 1016.98137801 163.62255859 1017.90844727 C160.17787926 1018.47486835 156.77357063 1019.17617924 153.35302734 1019.87329102 C126.43249924 1024.87936369 99.72237015 1024.90767931 72.42822266 1024.8269043 C66.5890834 1024.80981354 60.75035435 1024.81996152 54.91122913 1024.83723068 C25.55450733 1024.9109262 -2.60626219 1024.18877747 -31.38671875 1017.90014648 C-34.77246451 1017.18478452 -38.17662216 1016.5996764 -41.58447266 1015.99829102 C-63.83427649 1011.83341282 -85.36402195 1004.86690454 -106.83447266 997.81079102 C-107.94056885 997.45082031 -109.04666504 997.09084961 -110.1862793 996.7199707 C-116.29958056 994.68636704 -122.13854585 992.37574281 -127.9699707 989.63867188 C-130.44273967 988.50099957 -132.9297427 987.47217764 -135.46337891 986.47875977 C-141.561527 984.08025936 -147.53462982 981.40894072 -153.52197266 978.74829102 C-155.73887613 977.76399096 -157.95629964 976.78086107 -160.17431641 975.79907227 C-161.62632446 975.1538562 -161.62632446 975.1538562 -163.10766602 974.49560547 C-176.26111001 968.86730577 -191.1167884 973.32098613 -204.14697266 977.18579102 C-205.71603199 977.63581239 -207.28569495 978.08373453 -208.85595703 978.52954102 C-211.18081673 979.18988486 -213.50511733 979.85167034 -215.82705688 980.5222168 C-222.21765142 982.36231616 -228.65004658 983.98808613 -235.10766602 985.57348633 C-239.29214587 986.6113055 -243.43993271 987.75041225 -247.58447266 988.93579102 C-253.97241267 990.73803332 -260.38050352 992.40663191 -266.82666016 993.98657227 C-271.10885304 995.04432509 -275.34914606 996.20448 -279.58447266 997.43579102 C-287.20140186 999.6452163 -294.88398991 1001.54635218 -302.58447266 1003.43579102 C-313.03471887 1006.00312273 -323.4490528 1008.6397411 -333.8059082 1011.56274414 C-340.05651927 1013.31567296 -346.33662471 1014.92994502 -352.64961243 1016.4432373 C-356.99492357 1017.49443969 -361.27883321 1018.62496829 -365.53955078 1019.98095703 C-380.55721803 1024.60780686 -394.7719746 1025.24670552 -410.41723633 1024.99829102 C-413.79017633 1024.94532048 -417.16078156 1024.91972573 -420.53395557 1024.91092682 C-423.78659172 1024.90067033 -427.03899412 1024.87165245 -430.29150391 1024.84204102 C-431.49958206 1024.83354126 -432.70766022 1024.8250415 -433.9523468 1024.81628418 C-435.61260139 1024.78746155 -435.61260139 1024.78746155 -437.30639648 1024.75805664 C-438.28071121 1024.74440063 -439.25502594 1024.73074463 -440.25886536 1024.7166748 C-442.58447266 1024.43579102 -442.58447266 1024.43579102 -444.58447266 1022.43579102 C-444.85862732 1020.31105042 -444.85862732 1020.31105042 -444.89086914 1017.64501953 C-444.90685654 1016.64539688 -444.92284393 1015.64577423 -444.9393158 1014.61585999 C-444.9446785 1013.52647629 -444.9500412 1012.43709259 -444.95556641 1011.31469727 C-444.96459488 1010.18619858 -444.97362335 1009.05769989 -444.98292542 1007.89500427 C-444.99747248 1005.49155335 -445.00632564 1003.08806243 -445.01000977 1000.68457031 C-445.02173468 997.07162166 -445.07072859 993.46047924 -445.12158203 989.84790039 C-445.2145724 976.67111435 -444.32349946 964.93287496 -440.21530151 952.38381958 C-439.30626936 949.57668642 -438.54555686 946.73301996 -437.77587891 943.88500977 C-437.23424323 941.96406047 -436.69128321 940.04348408 -436.14697266 938.12329102 C-432.21177099 924.15089595 -428.35592098 910.15757428 -424.64697266 896.12329102 C-422.60703285 888.43754268 -420.44918637 880.78570186 -418.29833984 873.13037109 C-414.65593243 860.1530773 -411.09089302 847.15473544 -407.64697266 834.12329102 C-405.89505723 827.52271341 -404.05645368 820.94784743 -402.20947266 814.37329102 C-399.15528087 803.49862911 -396.1329642 792.61651553 -393.20263672 781.70776367 C-392.66757209 779.74121096 -392.10865911 777.78117623 -391.54541016 775.82250977 C-387.78779773 762.28456965 -389.74885541 753.79309983 -396.35205078 741.74145508 C-398.60878856 737.51945992 -400.65478853 733.19629972 -402.70947266 728.87329102 C-403.13486328 727.9802124 -403.56025391 727.08713379 -403.99853516 726.16699219 C-408.71838645 716.16754015 -412.75508355 705.95833842 -416.46337891 695.54125977 C-417.34584521 693.09679736 -418.25143327 690.66580757 -419.17431641 688.23657227 C-424.00615348 675.45328791 -428.36221122 662.51459914 -431.63916016 649.23657227 C-432.47101503 645.8919657 -433.40537177 642.61050121 -434.39697266 639.31079102 C-436.17456518 633.12238121 -437.70773567 626.8987354 -439.14697266 620.62329102 C-439.44341675 619.34591064 -439.44341675 619.34591064 -439.74584961 618.04272461 C-442.94227577 603.8741409 -445.03736385 590.42536013 -444.98852539 575.89208984 C-444.99424912 574.31938194 -445.00122097 572.74667817 -445.00932312 571.17398071 C-445.02705352 566.95664114 -445.0261241 562.7395119 -445.02038074 558.52214646 C-445.01725793 554.97430367 -445.02341557 551.42649952 -445.02941948 547.87866229 C-445.04339853 539.49264225 -445.04196034 531.10672422 -445.03051758 522.72070312 C-445.01905629 514.13251315 -445.03309377 505.54463621 -445.05991405 496.95648748 C-445.08222975 489.52654094 -445.08867268 482.09669149 -445.08283764 474.66671389 C-445.07950285 470.25412565 -445.08164609 465.84173759 -445.09908867 461.42917824 C-445.16490657 443.05279692 -444.9175086 425.41523106 -440.58447266 407.43579102 C-440.09736376 405.17828699 -439.61131111 402.92055404 -439.12744141 400.66235352 C-438.68379723 398.79320586 -438.23210599 396.92594796 -437.77197266 395.06079102 C-437.39359253 393.51174072 -437.39359253 393.51174072 -437.00756836 391.93139648 C-424.17486453 340.24727946 -404.6685474 291.24465818 -377.58447266 245.43579102 C-377.18341309 244.75500488 -376.78235352 244.07421875 -376.36914062 243.37280273 C-362.37763735 219.6582909 -362.37763735 219.6582909 -354.52978516 209.91235352 C-351.95386942 206.63297484 -349.5293067 203.250903 -347.08447266 199.87329102 C-343.7153196 195.24028089 -340.29132563 190.79354251 -336.42822266 186.55688477 C-334.50353221 184.3426752 -332.7225293 182.03881548 -330.94140625 179.70849609 C-325.50271653 172.60336366 -319.64402795 166.04504134 -313.44775391 159.59008789 C-312.5215625 158.62425781 -312.5215625 158.62425781 -311.57666016 157.63891602 C-310.74690674 156.78281738 -310.74690674 156.78281738 -309.90039062 155.90942383 C-308.48350196 154.45232686 -308.48350196 154.45232686 -307.58447266 152.43579102 C-306.92447266 152.43579102 -306.26447266 152.43579102 -305.58447266 152.43579102 C-305.58447266 151.77579102 -305.58447266 151.11579102 -305.58447266 150.43579102 C-304.92447266 150.43579102 -304.26447266 150.43579102 -303.58447266 150.43579102 C-303.58447266 149.77579102 -303.58447266 149.11579102 -303.58447266 148.43579102 C-302.92447266 148.43579102 -302.26447266 148.43579102 -301.58447266 148.43579102 C-301.58447266 147.77579102 -301.58447266 147.11579102 -301.58447266 146.43579102 C-300.92447266 146.43579102 -300.26447266 146.43579102 -299.58447266 146.43579102 C-299.25447266 145.44579102 -298.92447266 144.45579102 -298.58447266 143.43579102 C-297.92447266 143.43579102 -297.26447266 143.43579102 -296.58447266 143.43579102 C-296.58447266 142.77579102 -296.58447266 142.11579102 -296.58447266 141.43579102 C-295.92447266 141.43579102 -295.26447266 141.43579102 -294.58447266 141.43579102 C-294.58447266 140.77579102 -294.58447266 140.11579102 -294.58447266 139.43579102 C-293.92447266 139.43579102 -293.26447266 139.43579102 -292.58447266 139.43579102 C-292.58447266 138.77579102 -292.58447266 138.11579102 -292.58447266 137.43579102 C-291.92447266 137.43579102 -291.26447266 137.43579102 -290.58447266 137.43579102 C-290.58447266 136.77579102 -290.58447266 136.11579102 -290.58447266 135.43579102 C-289.92447266 135.43579102 -289.26447266 135.43579102 -288.58447266 135.43579102 C-288.58447266 134.77579102 -288.58447266 134.11579102 -288.58447266 133.43579102 C-287.22119141 132.06079102 -287.22119141 132.06079102 -285.27197266 130.43579102 C-281.87531902 127.55848512 -278.59134929 124.59550044 -275.33447266 121.56079102 C-270.66130706 117.29314805 -265.77491577 113.50887859 -260.67041016 109.77563477 C-257.43693235 107.32392185 -254.39191853 104.72451398 -251.33447266 102.06079102 C-244.72773212 96.34579476 -237.6254336 91.48763859 -230.37060547 86.63891602 C-227.97674918 85.02643326 -225.62408493 83.35840419 -223.27197266 81.68579102 C-214.67787193 75.65942228 -205.73450127 70.25712195 -196.58447266 65.12329102 C-195.58609375 64.56206543 -194.58771484 64.00083984 -193.55908203 63.42260742 C-172.49015386 51.63084734 -150.96056474 40.5539809 -128.58447266 31.43579102 C-127.87863037 31.14236816 -127.17278809 30.84894531 -126.44555664 30.54663086 C-119.48809479 27.69614573 -112.41054385 25.28987246 -105.27197266 22.93579102 C-104.13824219 22.5580957 -103.00451172 22.18040039 -101.83642578 21.79125977 C-83.05335016 15.56234238 -64.11286802 9.97004838 -44.77197266 5.74829102 C-43.46897217 5.46320679 -43.46897217 5.46320679 -42.13964844 5.17236328 C-39.29270356 4.56697239 -36.43978022 4.00053383 -33.58447266 3.43579102 C-32.35897516 3.18639298 -31.13347767 2.93699495 -29.87084389 2.68003941 C-19.83214329 0.71596435 -10.21179912 -0.01190747 0 0 Z M-2.31581116 26.90119934 C-6.92988386 27.65583388 -11.55389426 28.34055451 -16.17776489 29.03211975 C-23.89461158 30.19473469 -31.33355908 31.57041955 -38.84228516 33.71337891 C-42.49296631 34.67512797 -46.17376054 35.29333046 -49.89160156 35.93481445 C-54.24880645 36.74542047 -58.50191231 37.88185448 -62.77197266 39.06079102 C-63.70468994 39.31731445 -64.63740723 39.57383789 -65.59838867 39.83813477 C-80.69931338 44.0727657 -95.60907373 49.01209791 -110.10009766 55.01782227 C-113.16164388 56.26372056 -116.23457427 57.41014507 -119.34350586 58.52807617 C-150.14279059 69.66944833 -179.74958649 86.83139383 -206.58447266 105.43579102 C-207.31682129 105.94142578 -208.04916992 106.44706055 -208.80371094 106.96801758 C-228.11074807 120.33149087 -246.65799932 134.7176887 -263.77587891 150.81079102 C-266.17281731 153.05104499 -268.60239474 155.22862778 -271.08447266 157.37329102 C-275.69588284 161.38071193 -279.82849958 165.69382286 -283.89697266 170.24829102 C-286.75379359 173.44622489 -289.65375788 176.55254366 -292.70947266 179.56079102 C-296.54732916 183.35340756 -300.08735604 187.32927586 -303.58447266 191.43579102 C-304.43138672 192.41676758 -305.27830078 193.39774414 -306.15087891 194.40844727 C-311.79800586 200.97834641 -317.19755342 207.67095518 -322.30224609 214.67651367 C-323.22974908 215.94909298 -324.16050343 217.21930472 -325.09326172 218.48803711 C-335.31029628 232.38824197 -344.63270222 246.62534758 -353.41210938 261.4675293 C-354.61371298 263.48488212 -355.83389789 265.49008322 -357.05712891 267.49438477 C-362.36998556 276.2661539 -367.01379917 285.1867208 -371.28369141 294.51000977 C-373.06539885 298.39818746 -374.99284301 302.19634714 -376.94384766 306.00219727 C-380.84580361 313.70350203 -384.03032238 321.64108813 -387.14697266 329.68579102 C-387.42927734 330.40879395 -387.71158203 331.13179688 -388.00244141 331.87670898 C-392.19855265 342.625684 -396.21602603 353.3949253 -399.58447266 364.43579102 C-399.79475098 365.10819824 -400.0050293 365.78060547 -400.22167969 366.47338867 C-403.92037593 378.32203804 -406.93164351 390.31240011 -409.58447266 402.43579102 C-409.82842773 403.54664063 -410.07238281 404.65749023 -410.32373047 405.80200195 C-414.94103853 427.21058789 -417.64545788 448.63695445 -419.58447266 470.43579102 C-419.68904785 471.56758789 -419.79362305 472.69938477 -419.90136719 473.86547852 C-420.7967188 484.66735916 -420.82595367 495.4787346 -420.83447266 506.31079102 C-420.83581207 507.32168793 -420.83715149 508.33258484 -420.83853149 509.37411499 C-420.83376725 526.04914071 -419.99723912 542.37097902 -418.00341797 558.93139648 C-417.58997078 562.38980029 -417.2189024 565.85046451 -416.85791016 569.31469727 C-415.68130028 580.27126901 -414.06734894 590.94050742 -411.48291016 601.65454102 C-410.75745409 604.70776479 -410.15309264 607.71677453 -409.64697266 610.81079102 C-407.44453262 623.36856312 -404.01438568 635.69865015 -399.83056641 647.72875977 C-398.47301864 651.76735798 -397.30544579 655.83707523 -396.14697266 659.93579102 C-393.83514969 668.01569949 -390.82659118 675.6907301 -387.58447266 683.43579102 C-386.89337921 685.16352463 -386.2054567 686.89253304 -385.52197266 688.62329102 C-384.87766289 690.22807022 -384.23161135 691.8321505 -383.58447266 693.43579102 C-383.06796143 694.71764282 -383.06796143 694.71764282 -382.54101562 696.02539062 C-379.50050126 703.45009728 -376.17268609 710.71473611 -372.67791748 717.93469238 C-371.75114318 719.85392627 -370.83485505 721.77795369 -369.91894531 723.70239258 C-367.10661754 729.567152 -364.23851474 735.22058638 -360.54345703 740.59155273 C-357.73277308 744.72528386 -356.51960064 747.35529977 -356.82275391 752.40454102 C-357.53499775 756.11599916 -358.63827615 759.66239092 -359.85253906 763.23706055 C-360.80672157 766.10342736 -361.58544482 769.00434161 -362.36694336 771.92163086 C-362.97003194 774.16252612 -363.59845199 776.39499504 -364.23291016 778.62719727 C-365.19978731 782.04544265 -366.13861567 785.47012422 -367.06103516 788.90063477 C-369.30707644 797.25102312 -371.56492579 805.57658709 -374.20947266 813.81079102 C-376.01062527 819.4258597 -377.54183325 825.06937236 -378.92480469 830.80224609 C-380.7670045 838.35526531 -382.9062588 845.82336943 -385.01757812 853.3046875 C-386.57851297 858.83910125 -388.12012211 864.37504606 -389.58447266 869.93579102 C-391.32510205 876.539724 -393.17075272 883.11207123 -395.02197266 889.68579102 C-397.99151965 900.2404996 -400.82706369 910.824018 -403.58447266 921.43579102 C-407.34842483 935.91715448 -407.34842483 935.91715448 -409.08447266 940.87329102 C-410.4164739 944.70125182 -411.39039101 948.57304283 -412.35009766 952.51000977 C-413.87663442 958.70254252 -415.48660583 964.86799525 -417.16259766 971.02172852 C-417.38117432 971.82471878 -417.59975098 972.62770905 -417.82495117 973.45503235 C-418.72498305 976.7558712 -419.62766672 980.05597831 -420.53173828 983.35571289 C-421.20248749 985.8063093 -421.87020809 988.2577154 -422.53759766 990.70922852 C-422.74378723 991.45804291 -422.94997681 992.2068573 -423.16241455 992.97836304 C-424.21486292 996.65375592 -424.21486292 996.65375592 -424.58447266 1000.43579102 C-419.43554183 999.9677064 -414.99388931 999.06240272 -410.15087891 997.25219727 C-407.2476982 996.32865881 -404.31039052 995.71011855 -401.3347168 995.06738281 C-396.18645068 993.88508681 -391.09726389 992.47162958 -385.99835205 991.09436035 C-382.64946512 990.19025086 -379.2987009 989.29316802 -375.94775391 988.39672852 C-375.29720032 988.22266479 -374.64664673 988.04860107 -373.97637939 987.8692627 C-366.22473885 985.79954263 -358.44669554 983.84597309 -350.64599609 981.96948242 C-343.22768634 980.18439523 -335.91189454 978.27330351 -328.64697266 975.93579102 C-323.3952029 974.2541832 -318.16032959 972.79872398 -312.77978516 971.58422852 C-303.2798537 969.39224538 -293.83808437 966.9919766 -284.39697266 964.56079102 C-283.54385498 964.34169067 -282.6907373 964.12259033 -281.81176758 963.89685059 C-271.20236085 961.17136648 -260.60789206 958.40258515 -250.04931641 955.48535156 C-243.67929722 953.72570888 -237.29303277 952.03572867 -230.89697266 950.37329102 C-229.94508057 950.12579102 -228.99318848 949.87829102 -228.01245117 949.62329102 C-225.20327451 948.89354699 -222.39389692 948.16458116 -219.58447266 947.43579102 C-216.06286497 946.52206649 -212.54209037 945.60523762 -209.02197266 944.68579102 C-208.25473877 944.48719482 -207.48750488 944.28859863 -206.69702148 944.08398438 C-203.58312162 943.26931141 -200.53336323 942.41847561 -197.48291016 941.38500977 C-194.27166184 940.33334758 -191.08551402 939.65653661 -187.77197266 938.99829102 C-182.89098735 937.99020554 -178.28450155 936.80979431 -173.64697266 934.98657227 C-167.74967237 933.41172503 -164.17622593 934.8710266 -159.09814453 937.79516602 C-158.33050781 938.25407227 -157.56287109 938.71297852 -156.77197266 939.18579102 C-150.83406893 942.66855126 -144.92244135 945.74683383 -138.58447266 948.43579102 C-136.94744719 949.15123545 -135.31073745 949.86740268 -133.67431641 950.58422852 C-123.08135528 955.1767594 -112.46915374 959.5799323 -101.58447266 963.43579102 C-100.48941406 963.82444336 -99.39435547 964.2130957 -98.26611328 964.61352539 C-95.10204401 965.73173054 -91.936018 966.84373446 -88.76733398 967.94876099 C-86.88976143 968.60399634 -85.01346358 969.26288077 -83.13720703 969.921875 C-75.68584881 972.49780913 -68.25386912 974.62539437 -60.58447266 976.43579102 C-58.4184549 976.98268975 -56.25311227 977.53226781 -54.08837891 978.08422852 C-26.12221287 985.09387761 1.70264095 989.27980586 30.41552734 991.43579102 C31.73738037 991.54383057 31.73738037 991.54383057 33.0859375 991.65405273 C38.19520644 992.07106819 43.29090845 992.31227161 48.41552734 992.43579102 C50.03394531 992.47663818 50.03394531 992.47663818 51.68505859 992.51831055 C82.45280305 993.16954475 113.21344041 991.44370347 143.60302734 986.49829102 C144.35249634 986.37717957 145.10196533 986.25606812 145.87414551 986.13128662 C154.7697925 984.66922149 163.43140181 982.77187711 172.10888672 980.32519531 C175.30100183 979.46659554 178.48004145 978.7942492 181.72802734 978.18579102 C206.94444277 972.98056765 232.4266702 963.5581761 255.89990234 953.01391602 C258.22307561 951.97106935 260.55780457 950.95355304 262.90380859 949.96313477 C266.6239271 948.34515219 270.2358504 946.58135049 273.85302734 944.74829102 C275.27603079 944.0291973 276.69921269 943.31045664 278.12255859 942.59204102 C278.84008301 942.22981445 279.55760742 941.86758789 280.296875 941.49438477 C282.26963347 940.50868752 284.2513565 939.54572489 286.23974609 938.59204102 C309.68699971 927.27570539 331.44530331 912.79248278 352.41552734 897.43579102 C353.37023926 896.74018066 353.37023926 896.74018066 354.34423828 896.03051758 C367.54072014 886.38916407 379.84364107 875.94939376 391.79443359 864.81079102 C394.26152832 862.57533112 396.8087178 860.50447744 399.41552734 858.43579102 C401.10426613 856.79149272 402.76858249 855.12194884 404.41552734 853.43579102 C404.95177734 852.90985352 405.48802734 852.38391602 406.04052734 851.84204102 C409.08913876 848.84786909 412.00595639 845.80301137 414.79052734 842.56079102 C417.33499188 839.60171507 419.99494287 836.84607381 422.79052734 834.12329102 C426.88320695 830.07908647 430.51700929 825.79215785 434.11083984 821.30297852 C436.43676182 818.40937389 438.82658496 815.57938443 441.22802734 812.74829102 C457.78894354 792.8143245 472.60725791 770.96694931 485.41552734 748.43579102 C486.00938232 747.40397705 486.00938232 747.40397705 486.61523438 746.35131836 C494.02825534 733.4446432 500.50389423 720.22080148 506.43115234 706.57250977 C507.62703328 703.97668884 508.9647786 701.46769776 510.29052734 698.93579102 C513.45577774 692.67704653 515.71742425 686.23803859 517.97412109 679.61547852 C519.23620829 675.91279325 520.61240648 672.26565432 522.04052734 668.62329102 C525.18577146 660.5225176 528.06993004 652.48149642 529.79052734 643.95532227 C530.6073688 640.66243013 531.7354658 637.51380223 532.85302734 634.31079102 C535.07822092 627.90077172 536.54678509 621.54801761 537.73974609 614.87329102 C538.41552734 611.43579102 538.41552734 611.43579102 539.41162109 608.01782227 C540.51444985 604.08282628 541.19317002 600.15751656 541.79052734 596.12329102 C542.04656597 594.42139705 542.30310327 592.71957806 542.56005859 591.01782227 C542.69621582 590.11241699 542.83237305 589.20701172 542.97265625 588.27416992 C543.42618173 585.36750663 543.92241061 582.47067462 544.42724609 579.57250977 C551.02172386 540.90739964 551.392408 500.41164265 547.41552734 461.43579102 C547.1951968 459.11420284 546.9751543 456.79258732 546.75537109 454.47094727 C544.88646653 435.37788457 542.64253926 416.26611636 537.34130859 397.78344727 C536.42062762 394.4542338 535.71175218 391.13581753 535.04052734 387.74829102 C533.10916965 378.46937689 530.26211626 369.46705512 527.41552734 360.43579102 C527.20138184 359.75339355 526.98723633 359.07099609 526.76660156 358.36791992 C522.4470999 344.7121588 517.16440218 331.39389339 511.58349609 318.20922852 C510.79893743 316.34622969 510.03089628 314.47619598 509.27880859 312.59985352 C504.4869197 300.72361062 498.70901017 289.4224896 492.13427734 278.43969727 C490.22858934 275.10907437 488.53040577 271.69695161 486.85302734 268.24829102 C484.54667402 263.56925119 482.1249775 259.2361651 479.13818359 254.96704102 C477.28747014 252.24762533 475.56211482 249.46921534 473.83813477 246.66845703 C469.32870018 239.34391352 464.57054319 232.32657285 459.41552734 225.43579102 C458.10202297 223.60317714 456.78953598 221.76983367 455.47802734 219.93579102 C451.34224981 214.2490969 446.90419354 208.84520925 442.41552734 203.43579102 C440.91522717 201.58186723 439.4152262 199.72770126 437.91552734 197.87329102 C434.31604207 193.47113307 430.58794956 189.21443678 426.75146484 185.01782227 C425.49567123 183.62972932 424.24549357 182.23588726 423.03271484 180.81005859 C417.77641024 174.65435261 412.10385649 168.9380016 406.38330078 163.21826172 C404.67758137 161.51036046 402.98003708 159.79461057 401.28271484 158.07836914 C395.38115754 152.14718458 389.40948629 146.56359854 382.83203125 141.37866211 C380.30385084 139.34600302 377.9206106 137.20161902 375.54052734 134.99829102 C369.78044442 129.76432591 363.64494865 125.08667731 357.41552734 120.43579102 C356.82078613 119.98945312 356.22604492 119.54311523 355.61328125 119.08325195 C342.33717434 109.13942314 328.63486697 99.98044005 314.41552734 91.43579102 C313.5009375 90.87988281 313.5009375 90.87988281 312.56787109 90.31274414 C296.25508182 80.40972762 279.42884215 71.26937153 261.82177734 63.87719727 C258.89138704 62.63715825 256.03315424 61.31207491 253.16552734 59.93579102 C247.2286454 57.20948873 241.06935993 55.14704512 234.89672852 53.02832031 C230.0480224 51.36386627 225.24744714 49.63171924 220.47802734 47.74829102 C210.85059582 44.00020699 201.00651217 41.23368198 190.97094727 38.83007812 C188.14609375 38.14883415 185.39017278 37.42692228 182.64599609 36.46704102 C177.89548342 34.95055329 173.0536428 34.02805328 168.16552734 33.06079102 C167.06797119 32.84310059 165.97041504 32.62541016 164.83959961 32.40112305 C157.03375757 30.8824422 149.21153497 29.5267309 141.35302734 28.31079102 C140.41233398 28.16464355 139.47164062 28.01849609 138.50244141 27.86791992 C136.42891034 27.55706277 134.35310151 27.26122247 132.27587891 26.97607422 C129.39402105 26.57273805 126.52864756 26.13125058 123.65673828 25.66699219 C105.83140285 22.95015258 88.05839689 22.94055276 70.07324219 22.98974609 C66.56193138 22.99891252 63.05128715 22.99204709 59.54003906 22.96923828 C38.60864351 22.83400516 18.3749065 23.50903503 -2.31581116 26.90119934 Z " fill="#000000" transform="translate(444.58447265625,-0.435791015625)"/>
<path d="M0 0 C0.78717407 -0.01140015 1.57434814 -0.02280029 2.38537598 -0.0345459 C4.03567254 -0.0532816 5.68604116 -0.06644766 7.33642578 -0.07421875 C9.83889875 -0.09371221 12.33813307 -0.15592501 14.83984375 -0.21875 C29.42543968 -0.41284037 29.42543968 -0.41284037 35.71386719 4.81103516 C36.25172852 5.33745605 36.78958984 5.86387695 37.34375 6.40625 C38.17648437 7.16808594 39.00921875 7.92992187 39.8671875 8.71484375 C40.47820312 9.41738281 41.08921875 10.11992187 41.71875 10.84375 C42.34523438 11.54371094 42.97171875 12.24367188 43.6171875 12.96484375 C45.73717342 15.9625614 46.97575595 19.00066482 48.34375 22.40625 C48.88824282 23.66232954 49.43782312 24.91621463 49.9921875 26.16796875 C55.89457275 39.58479221 61.43837352 53.0908331 66.62890625 66.80078125 C69.37319794 74.00979215 72.33506104 81.04765249 75.5625 88.05078125 C77.97102283 93.30106729 80.28366439 98.55919139 82.36328125 103.94921875 C83.0207808 105.59689691 83.72771315 107.22563529 84.48046875 108.83203125 C87.90310769 116.36183692 88.73328294 123.32242995 86.53125 131.37890625 C80.62345923 146.94839651 68.51938397 159.64758048 57.46875 171.78125 C56.09066162 173.3201566 54.71531249 174.86152431 53.34375 176.40625 C52.79332031 177.00695312 52.24289062 177.60765625 51.67578125 178.2265625 C48.51551777 182.03304233 47.3351473 185.45695575 47.61328125 190.42578125 C50.55346984 202.42237962 59.93135231 213.56899891 66.98828125 223.4921875 C68.28867714 225.3284814 69.56866767 227.17732078 70.84375 229.03125 C76.43323882 237.09602004 82.54550561 244.56703482 89.03515625 251.92285156 C90.71218158 253.82389745 92.3701093 255.74132392 94.03125 257.65625 C95.13313083 258.90826544 96.23742821 260.158157 97.34375 261.40625 C98.06175781 262.21707031 98.77976562 263.02789063 99.51953125 263.86328125 C106.39468187 271.57038286 113.48086001 278.71125041 121.34375 285.40625 C122.18292969 286.13457031 123.02210938 286.86289062 123.88671875 287.61328125 C148.57958398 308.69587928 176.63321487 325.41652766 206.34375 338.40625 C207.35888672 338.85871094 207.35888672 338.85871094 208.39453125 339.3203125 C210.03378985 340.03998701 211.68831789 340.72460148 213.34375 341.40625 C213.92898438 341.6846875 214.51421875 341.963125 215.1171875 342.25 C221.06644597 344.87253027 226.91571333 345.18126151 233.34375 344.40625 C243.23776297 340.13824441 250.7115878 327.61109341 257.34375 319.40625 C258.35457767 318.17504913 259.36635049 316.94462382 260.37890625 315.71484375 C266.57115683 308.17328721 272.59910547 300.55827966 278.2980957 292.6340332 C284.69221552 283.89169508 284.69221552 283.89169508 290.4375 282.83984375 C302.04181129 282.85315145 311.27819171 286.24119662 321.1484375 292.1953125 C323.51049596 293.49822731 325.94460022 294.52909665 328.43017578 295.57177734 C332.50090699 297.34694438 336.42738664 299.42971235 340.3828125 301.4453125 C343.45914908 303.00129741 346.5174884 304.48024593 349.69140625 305.83203125 C354.48602956 307.89859082 359.12101961 310.24260269 363.78125 312.59375 C365.75129633 313.58334479 367.72134845 314.57292806 369.69140625 315.5625 C370.65449707 316.0471875 371.61758789 316.531875 372.60986328 317.03125 C375.6668511 318.56875272 378.7267448 320.10033833 381.78808594 321.62915039 C383.06660037 322.26792258 384.34460305 322.90772015 385.62207031 323.54858398 C388.97476331 325.22969529 392.3351813 326.89276542 395.70703125 328.53515625 C396.43035645 328.89005127 397.15368164 329.24494629 397.89892578 329.6105957 C399.27372913 330.28477509 400.65085429 330.95425016 402.03076172 331.61791992 C411.33990638 336.20023498 411.33990638 336.20023498 413.62890625 341.23046875 C418.07344818 360.97589272 411.31656083 387.99408476 401.78125 405.53125 C385.77977801 430.10493912 355.25884095 448.21501249 327.15234375 454.75 C303.79977381 458.77382743 280.18904826 457.17428803 257.34375 451.40625 C255.24089171 450.89710944 253.13802708 450.38799502 251.03515625 449.87890625 C242.65204351 447.79625128 234.57035961 445.61888774 226.57885742 442.30981445 C223.83692136 441.20135947 221.06114631 440.34446965 218.21875 439.53125 C211.23998058 437.43273891 204.46158982 434.90286064 197.6640625 432.29199219 C195.09286679 431.31047935 192.51562291 430.34597743 189.9375 429.3828125 C188.07286126 428.68243916 186.20827737 427.98191976 184.34375 427.28125 C183.47169922 426.95672852 182.59964844 426.63220703 181.70117188 426.29785156 C177.07108364 424.54779903 172.66439948 422.61821279 168.27050781 420.3425293 C166.3399005 419.40437939 164.41104918 418.65563478 162.390625 417.93359375 C157.92136533 416.31365031 153.7851603 414.20056293 149.59375 411.96875 C148.77664551 411.53481934 147.95954102 411.10088867 147.11767578 410.65380859 C126.61581231 399.64318693 107.56356656 386.86401668 89.34375 372.40625 C88.7161377 371.91012207 88.08852539 371.41399414 87.44189453 370.90283203 C76.07551235 361.88907179 65.2097128 352.47276248 55.06274414 342.09130859 C53.30651311 340.36974822 51.47955996 338.78335588 49.60546875 337.19140625 C45.45441221 333.57830003 41.69417337 329.70140357 37.96875 325.65625 C37.3195459 324.95669189 36.6703418 324.25713379 36.00146484 323.53637695 C34.11147357 321.49673209 32.22733826 319.45180615 30.34375 317.40625 C29.38560622 316.37352203 28.42729357 315.34095067 27.46875 314.30859375 C22.65873492 309.085218 18.0707285 303.73004733 13.61328125 298.203125 C11.29080685 295.34100509 8.91393637 292.53085193 6.53125 289.71875 C-3.4150941 277.78007195 -12.35452835 265.10874739 -21.2109375 252.3515625 C-23.38161282 249.22583852 -25.57049481 246.11534612 -27.7890625 243.0234375 C-37.57041567 229.37985802 -47.01506867 215.38091407 -54.65625 200.40625 C-55.01976562 199.6946875 -55.38328125 198.983125 -55.7578125 198.25 C-56.39962147 196.97618067 -57.03535859 195.69926415 -57.66210938 194.41796875 C-58.29813847 193.13091578 -58.94600858 191.84960461 -59.60888672 190.57617188 C-62.04821671 185.86086532 -63.95814489 181.11880203 -65.65625 176.09375 C-66.17368866 174.58436419 -66.69191655 173.0752487 -67.2109375 171.56640625 C-67.45811523 170.84598145 -67.70529297 170.12555664 -67.95996094 169.38330078 C-68.83277932 166.90501071 -69.81078425 164.47269729 -70.78125 162.03125 C-82.18708495 130.91575048 -81.31439666 92.45417265 -67.65625 62.40625 C-67.04500487 60.74216631 -66.44017734 59.07570188 -65.84375 57.40625 C-61.42347478 46.40141542 -54.4037701 36.30099904 -46.65625 27.40625 C-45.9240625 26.56449219 -45.191875 25.72273438 -44.4375 24.85546875 C-42.20896198 22.3407315 -39.94629106 19.86503093 -37.65625 17.40625 C-36.96273437 16.65859375 -36.26921875 15.9109375 -35.5546875 15.140625 C-31.52923302 10.94420527 -27.83487243 8.04441614 -22.65625 5.40625 C-21.8725 4.87 -21.08875 4.33375 -20.28125 3.78125 C-14.03974457 0.51189001 -6.93733988 0.08026423 0 0 Z " fill="#FEFEFE" transform="translate(340.65625,282.59375)"/>
<path d="M0 0 C0 3 0 3 -1.29077148 4.65153503 C-1.89477783 5.24887955 -2.49878418 5.84622406 -3.12109375 6.46166992 C-3.80179932 7.1421489 -4.48250488 7.82262787 -5.18383789 8.52372742 C-5.92754639 9.25195206 -6.67125488 9.9801767 -7.4375 10.73046875 C-8.19216553 11.48088943 -8.94683105 12.23131012 -9.72436523 13.00447083 C-12.14264671 15.40592396 -14.57113771 17.79675349 -17 20.1875 C-18.63870258 21.81116119 -20.2767324 23.43550167 -21.9140625 25.06054688 C-25.93492745 29.04828738 -29.96422965 33.02734819 -34 37 C-34.66 36.67 -35.32 36.34 -36 36 C-35.28714844 35.29875 -34.57429687 34.5975 -33.83984375 33.875 C-28.8642555 28.95510214 -24.02591161 24.00370881 -19.46484375 18.69140625 C-15.16237809 13.72349257 -10.20322456 9.44846442 -5.3046875 5.0859375 C-3.4798561 3.43431044 -1.71698015 1.76186852 0 0 Z " fill="#DDDDDD" transform="translate(184,147)"/>
</svg>
